<?xml version="1.0" standalone="no"?>
<!DOCTYPE svg PUBLIC "-//W3C//DTD SVG 20010904//EN"
 "http://www.w3.org/TR/2001/REC-SVG-20010904/DTD/svg10.dtd">
<svg version="1.0" xmlns="http://www.w3.org/2000/svg"
 width="400.000000pt" height="400.000000pt" viewBox="0 0 400.000000 400.000000"
 preserveAspectRatio="xMidYMid meet">
<metadata>
Created by potrace 1.14, written by Peter Selinger 2001-2017
</metadata>
<g transform="translate(0.000000,400.000000) scale(0.100000,-0.100000)"
fill="#000000" stroke="none">
<path d="M0 1995 l0 -1995 2000 0 2000 0 0 1995 0 1995 -2000 0 -2000 0 0
-1995z m974 1755 c107 -27 169 -63 252 -145 113 -111 164 -249 151 -404 -14
-163 -128 -352 -257 -425 -28 -16 -39 -27 -30 -29 150 -45 282 -119 381 -213
l35 -34 34 42 c221 278 528 465 875 534 138 28 416 25 555 -5 138 -29 232 -61
363 -123 l107 -51 0 -70 0 -69 -32 21 c-63 42 -229 121 -305 147 -254 85 -587
87 -835 4 -111 -37 -243 -104 -338 -171 -88 -62 -244 -210 -306 -291 l-44 -56
35 -58 c83 -137 125 -305 125 -496 0 -240 -72 -419 -245 -606 -36 -38 -65 -76
-65 -84 0 -27 95 -204 155 -288 76 -107 236 -268 340 -342 96 -67 232 -137
335 -172 146 -48 232 -61 420 -61 188 1 271 13 420 62 78 26 252 109 300 143
16 11 31 20 34 20 3 0 6 -29 6 -65 l0 -64 -62 -35 c-230 -128 -518 -186 -817
-165 -193 13 -346 56 -523 146 -148 75 -265 160 -383 278 -118 119 -196 224
-272 372 -31 59 -57 109 -58 110 -1 2 -31 -13 -67 -32 -140 -75 -270 -105
-449 -105 l-119 0 0 1400 0 1400 103 0 c71 0 129 -6 181 -20z"/>
<path d="M810 3226 c0 -507 -12 -455 96 -435 223 41 396 292 355 517 -17 93
-54 165 -121 233 -75 76 -164 120 -261 127 l-69 5 0 -447z"/>
<path d="M810 1879 l0 -812 93 6 c111 6 222 40 320 98 50 30 67 45 63 57 -47
152 -70 375 -56 538 18 207 61 359 151 535 27 52 49 100 49 106 0 16 -108 113
-176 158 -105 70 -290 125 -421 125 l-23 0 0 -811z"/>
<path d="M1476 2231 c-89 -176 -129 -359 -129 -586 0 -149 24 -335 44 -335 19
0 121 138 158 214 64 129 76 188 75 361 0 142 -2 155 -32 244 -18 52 -43 112
-56 134 l-24 40 -36 -72z"/>
</g>
</svg>
